<svg id="instagram" xmlns="http://www.w3.org/2000/svg" width="50.25" height="50.25" viewBox="0 0 50.25 50.25">
  <path id="Caminho_36" data-name="Caminho 36" d="M216.618,211.809A4.809,4.809,0,1,1,211.809,207,4.809,4.809,0,0,1,216.618,211.809Zm0,0" transform="translate(-186.684 -186.684)" fill="#f3f3f3"/>
  <path id="Caminho_37" data-name="Caminho 37" d="M158.559,138.808a4.778,4.778,0,0,0-2.738-2.738,7.982,7.982,0,0,0-2.679-.5c-1.522-.069-1.978-.084-5.83-.084s-4.309.015-5.83.084a7.987,7.987,0,0,0-2.679.5,4.78,4.78,0,0,0-2.738,2.738,7.985,7.985,0,0,0-.5,2.679c-.069,1.521-.084,1.977-.084,5.83s.015,4.308.084,5.83a7.982,7.982,0,0,0,.5,2.679,4.778,4.778,0,0,0,2.738,2.738,7.972,7.972,0,0,0,2.679.5c1.521.069,1.977.084,5.83.084s4.309-.015,5.83-.084a7.972,7.972,0,0,0,2.679-.5,4.778,4.778,0,0,0,2.738-2.738,7.99,7.99,0,0,0,.5-2.679c.069-1.522.084-1.978.084-5.83s-.015-4.309-.084-5.83A7.973,7.973,0,0,0,158.559,138.808Zm-11.247,15.917a7.408,7.408,0,1,1,7.408-7.408A7.408,7.408,0,0,1,147.313,154.725Zm7.7-13.378a1.731,1.731,0,1,1,1.731-1.731A1.731,1.731,0,0,1,155.014,141.346Zm0,0" transform="translate(-122.188 -122.191)" fill="#f3f3f3"/>
  <path id="Caminho_38" data-name="Caminho 38" d="M25.125,0A25.125,25.125,0,1,0,50.25,25.125,25.128,25.128,0,0,0,25.125,0Zm14.34,31.073a10.585,10.585,0,0,1-.671,3.5,7.377,7.377,0,0,1-4.219,4.219,10.592,10.592,0,0,1-3.5.671c-1.538.07-2.03.087-5.948.087s-4.41-.017-5.948-.087a10.592,10.592,0,0,1-3.5-.671,7.377,7.377,0,0,1-4.219-4.219,10.582,10.582,0,0,1-.671-3.5c-.071-1.539-.087-2.03-.087-5.948s.016-4.41.087-5.948a10.586,10.586,0,0,1,.67-3.5,7.382,7.382,0,0,1,4.22-4.219,10.6,10.6,0,0,1,3.5-.671c1.538-.07,2.03-.087,5.948-.087s4.41.017,5.948.087a10.6,10.6,0,0,1,3.5.67,7.379,7.379,0,0,1,4.219,4.22,10.584,10.584,0,0,1,.671,3.5c.07,1.538.087,2.03.087,5.948S39.536,29.535,39.465,31.073Zm0,0" fill="#f3f3f3"/>
</svg>
