<svg xmlns="http://www.w3.org/2000/svg" width="96.875" height="100" viewBox="0 0 96.875 100">
  <path id="leader" d="M95.791,33.534a13.29,13.29,0,1,0-23.465-8.545c0,.078,0,.154.006.231a9.962,9.962,0,0,0-5.169-1.441H64.585a13.293,13.293,0,1,0-16.312,0H45.7a9.96,9.96,0,0,0-5.153,1.432c0-.074.006-.147.006-.222a13.293,13.293,0,1,0-23.465,8.545A9.433,9.433,0,0,0,8,42.916V64.241a9.392,9.392,0,0,0,5.1,8.332L15.8,97.386A2.93,2.93,0,0,0,18.709,100H35.8a2.929,2.929,0,0,0,2.912-2.613L41.41,72.569q.372-.192.726-.416L44.971,97.4a2.93,2.93,0,0,0,2.911,2.6H64.976a2.929,2.929,0,0,0,2.911-2.6l2.834-25.268q.362.231.743.431l2.7,24.827A2.93,2.93,0,0,0,77.072,100H94.166a2.93,2.93,0,0,0,2.912-2.613l2.694-24.813a9.392,9.392,0,0,0,5.1-8.332V42.916a9.433,9.433,0,0,0-9.084-9.382ZM56.429,5.859A7.434,7.434,0,1,1,49,13.293a7.442,7.442,0,0,1,7.434-7.434ZM99.015,42.916V64.241a3.571,3.571,0,0,1-3.6,3.532H75.823a3.639,3.639,0,0,1-2.978-1.558,10.184,10.184,0,0,0,4.4-8.393V39.383H95.414a3.571,3.571,0,0,1,3.6,3.533Zm-13.4-25.362a7.434,7.434,0,1,1-7.434,7.434A7.442,7.442,0,0,1,85.619,17.554ZM58.463,40.407l-2.034,2.636L54.4,40.407l2.034-5.2ZM41.47,33.944A4.271,4.271,0,0,1,45.7,29.638h6.62L48.335,39.816a2.929,2.929,0,0,0,.409,2.857l5.367,6.954a2.93,2.93,0,0,0,4.639,0l5.367-6.954a2.929,2.929,0,0,0,.409-2.857L60.542,29.638h6.621a4.271,4.271,0,0,1,4.226,4.306V57.823a4.271,4.271,0,0,1-4.226,4.306H45.7a4.271,4.271,0,0,1-4.226-4.306V33.944ZM27.256,17.554a7.434,7.434,0,1,1-7.434,7.434,7.442,7.442,0,0,1,7.434-7.434Zm-13.4,25.362a3.571,3.571,0,0,1,3.6-3.532H35.611V57.823a10.185,10.185,0,0,0,4.414,8.4,3.627,3.627,0,0,1-2.974,1.549H17.46a3.571,3.571,0,0,1-3.6-3.533ZM21.338,94.14,19.111,73.633H35.4L33.174,94.14Zm41.019,0H50.5L47.564,67.989H65.29Zm17.344,0L77.475,73.633H93.763L91.537,94.14Z" transform="translate(-8)"/>
</svg>
