<svg xmlns="http://www.w3.org/2000/svg" width="98" height="88.3" viewBox="0 0 98 88.3">
  <g id="building" transform="translate(0.5 0.5)">
    <g id="Grupo_5" data-name="Grupo 5">
      <g id="Grupo_4" data-name="Grupo 4">
        <path id="Caminho_16" data-name="Caminho 16" d="M95.383,108.067h-9.7V48.25a1.617,1.617,0,0,0-1.617-1.617H56.583V25.617A1.617,1.617,0,0,0,54.967,24H12.933a1.617,1.617,0,0,0-1.617,1.617v82.45h-9.7a1.617,1.617,0,1,0,0,3.233H95.383a1.617,1.617,0,1,0,0-3.233Zm-42.033,0H14.55V27.233h38.8Zm29.1,0H56.583v-58.2H82.45Z" transform="translate(0 -24)" stroke="#000" stroke-width="1"/>
        <path id="Caminho_17" data-name="Caminho 17" d="M313.617,180.933h9.7a1.617,1.617,0,0,0,1.617-1.617v-9.7A1.617,1.617,0,0,0,323.317,168h-9.7A1.617,1.617,0,0,0,312,169.617v9.7A1.617,1.617,0,0,0,313.617,180.933Zm1.617-9.7H321.7V177.7h-6.467Z" transform="translate(-248.95 -138.9)" stroke="#000" stroke-width="1"/>
        <path id="Caminho_18" data-name="Caminho 18" d="M313.617,260.933h9.7a1.617,1.617,0,0,0,1.617-1.617v-9.7A1.617,1.617,0,0,0,323.317,248h-9.7A1.617,1.617,0,0,0,312,249.617v9.7A1.617,1.617,0,0,0,313.617,260.933Zm1.617-9.7H321.7V257.7h-6.467Z" transform="translate(-248.95 -202.733)" stroke="#000" stroke-width="1"/>
        <path id="Caminho_19" data-name="Caminho 19" d="M313.617,340.933h9.7a1.617,1.617,0,0,0,1.617-1.617v-9.7A1.617,1.617,0,0,0,323.317,328h-9.7A1.617,1.617,0,0,0,312,329.617v9.7A1.617,1.617,0,0,0,313.617,340.933Zm1.617-9.7H321.7V337.7h-6.467Z" transform="translate(-248.95 -266.567)" stroke="#000" stroke-width="1"/>
        <path id="Caminho_20" data-name="Caminho 20" d="M177.617,180.933h9.7a1.617,1.617,0,0,0,1.617-1.617v-9.7A1.617,1.617,0,0,0,187.317,168h-9.7A1.617,1.617,0,0,0,176,169.617v9.7A1.617,1.617,0,0,0,177.617,180.933Zm1.617-9.7H185.7V177.7h-6.467Z" transform="translate(-140.433 -138.9)" stroke="#000" stroke-width="1"/>
        <path id="Caminho_21" data-name="Caminho 21" d="M177.617,100.933h9.7a1.617,1.617,0,0,0,1.617-1.617v-9.7A1.617,1.617,0,0,0,187.317,88h-9.7A1.617,1.617,0,0,0,176,89.617v9.7A1.617,1.617,0,0,0,177.617,100.933Zm1.617-9.7H185.7V97.7h-6.467Z" transform="translate(-140.433 -75.067)" stroke="#000" stroke-width="1"/>
        <path id="Caminho_22" data-name="Caminho 22" d="M177.617,260.933h9.7a1.617,1.617,0,0,0,1.617-1.617v-9.7A1.617,1.617,0,0,0,187.317,248h-9.7A1.617,1.617,0,0,0,176,249.617v9.7A1.617,1.617,0,0,0,177.617,260.933Zm1.617-9.7H185.7V257.7h-6.467Z" transform="translate(-140.433 -202.733)" stroke="#000" stroke-width="1"/>
        <path id="Caminho_23" data-name="Caminho 23" d="M177.617,340.933h9.7a1.617,1.617,0,0,0,1.617-1.617v-9.7A1.617,1.617,0,0,0,187.317,328h-9.7A1.617,1.617,0,0,0,176,329.617v9.7A1.617,1.617,0,0,0,177.617,340.933Zm1.617-9.7H185.7V337.7h-6.467Z" transform="translate(-140.433 -266.567)" stroke="#000" stroke-width="1"/>
        <path id="Caminho_24" data-name="Caminho 24" d="M97.617,180.933h9.7a1.617,1.617,0,0,0,1.617-1.617v-9.7A1.617,1.617,0,0,0,107.317,168h-9.7A1.617,1.617,0,0,0,96,169.617v9.7A1.617,1.617,0,0,0,97.617,180.933Zm1.617-9.7H105.7V177.7H99.233Z" transform="translate(-76.6 -138.9)" stroke="#000" stroke-width="1"/>
        <path id="Caminho_25" data-name="Caminho 25" d="M97.617,100.933h9.7a1.617,1.617,0,0,0,1.617-1.617v-9.7A1.617,1.617,0,0,0,107.317,88h-9.7A1.617,1.617,0,0,0,96,89.617v9.7A1.617,1.617,0,0,0,97.617,100.933Zm1.617-9.7H105.7V97.7H99.233Z" transform="translate(-76.6 -75.067)" stroke="#000" stroke-width="1"/>
        <path id="Caminho_26" data-name="Caminho 26" d="M97.617,260.933h9.7a1.617,1.617,0,0,0,1.617-1.617v-9.7A1.617,1.617,0,0,0,107.317,248h-9.7A1.617,1.617,0,0,0,96,249.617v9.7A1.617,1.617,0,0,0,97.617,260.933Zm1.617-9.7H105.7V257.7H99.233Z" transform="translate(-76.6 -202.733)" stroke="#000" stroke-width="1"/>
        <path id="Caminho_27" data-name="Caminho 27" d="M97.617,340.933h9.7a1.617,1.617,0,0,0,1.617-1.617v-9.7A1.617,1.617,0,0,0,107.317,328h-9.7A1.617,1.617,0,0,0,96,329.617v9.7A1.617,1.617,0,0,0,97.617,340.933Zm1.617-9.7H105.7V337.7H99.233Z" transform="translate(-76.6 -266.567)" stroke="#000" stroke-width="1"/>
      </g>
    </g>
  </g>
</svg>
