<svg id="policeman" xmlns="http://www.w3.org/2000/svg" width="97" height="96.981" viewBox="0 0 97 96.981">
  <path id="Caminho_28" data-name="Caminho 28" d="M246.222,63.732a2.841,2.841,0,1,0-2.841-2.841A2.847,2.847,0,0,0,246.222,63.732Z" transform="translate(-197.28 -47.063)"/>
  <path id="Caminho_29" data-name="Caminho 29" d="M95.339,75.694,64.612,61.666a23.417,23.417,0,0,0,7.8-17.459V34.762a32.706,32.706,0,0,0,3.076-1.57,2.841,2.841,0,0,0,.877-4.115l-3.626-5.04L78.186,13.7a2.841,2.841,0,0,0-1.563-4L49.892.214a2.841,2.841,0,0,0-1.9,0L21.261,9.7a2.841,2.841,0,0,0-1.563,4l5.42,10.283L21.5,29.17a2.841,2.841,0,0,0,.911,4.089,27.922,27.922,0,0,0,3.065,1.5v9.444A23.411,23.411,0,0,0,32.978,61.4L1.661,75.694A2.842,2.842,0,0,0,0,78.279V94.19a2.841,2.841,0,1,0,5.683,0V80.105L23.658,71.9l13.33,15.835a2.84,2.84,0,0,0,2.026,1.007q.074,0,.148,0a2.841,2.841,0,0,0,1.972-.8l7.366-7.1,7.366,7.1a2.841,2.841,0,0,0,1.972.8q.074,0,.148,0a2.842,2.842,0,0,0,2.026-1.008L73.342,71.9l17.976,8.207V94.19a2.841,2.841,0,1,0,5.683,0V78.279A2.842,2.842,0,0,0,95.339,75.694ZM48.5,73.286l-5.845-6.463a23.515,23.515,0,0,0,11.431.287Zm-20.432-43.6L29.453,27.7H68.377l1.439,2c-5.378,2.361-12.463,3.684-19.98,3.684C42,33.387,33.611,31.92,28.068,29.686ZM48.942,5.906l22.686,8.052-4.25,8.063H30.506l-4.25-8.063Zm-17.789,38.3V36.69a73.393,73.393,0,0,0,18.683,2.38,61.894,61.894,0,0,0,16.895-2.252v7.39a17.789,17.789,0,1,1-35.578,0Zm8.225,37.541L29.047,69.476l5.907-2.7,9.293,10.276Zm18.243,0-4.868-4.693,9.293-10.276,5.907,2.7Z" transform="translate(0 -0.05)"/>
</svg>
