<svg xmlns="http://www.w3.org/2000/svg" width="87.875" height="100" viewBox="0 0 87.875 100">
  <g id="swipe" transform="translate(0.5 0.5)">
    <path id="Caminho_12" data-name="Caminho 12" d="M122.963,64.77h-.14a7.717,7.717,0,0,0-5.077,1.852,8.119,8.119,0,0,0-7.484-5.34,7.835,7.835,0,0,0-5.474,2.308A7.976,7.976,0,0,0,97.716,59.2h-.148a7.021,7.021,0,0,0-4.4,1.34V41.657a8.1,8.1,0,1,0-16.183-.006l-.037,37.6L75.023,76.9a10.955,10.955,0,0,0-7.74-4.065,10.786,10.786,0,0,0-8.073,2.855l-1.865,1.547a1.783,1.783,0,0,0-.443,2.2l18.162,34.9a18.842,18.842,0,0,0,16.6,10.418h20.371c10.453,0,18.966-9.061,18.977-20.187,0-4.943.01-8.628.013-11.616.01-8,.015-10.943-.006-19.756a8.256,8.256,0,0,0-8.057-8.43Zm4.5,28.177c0,2.988-.009,6.678-.013,11.621-.009,9.162-6.921,16.623-15.408,16.623H91.665a15.287,15.287,0,0,1-13.435-8.5l-17.5-33.623.789-.657.068-.06A7.247,7.247,0,0,1,67.032,76.4a7.414,7.414,0,0,1,5.228,2.769l5.083,6.188a1.784,1.784,0,0,0,3.162-1.132l.03-42.573a4.55,4.55,0,1,1,9.068,0V67.325c0,.09,0,.18,0,.271,0,.04,0,.081,0,.121V78.686a1.784,1.784,0,0,0,3.568,0v-11.3a4.479,4.479,0,0,1,4.4-4.621h.148a4.729,4.729,0,0,1,4.6,4.834V77.639a1.784,1.784,0,0,0,3.568,0V69.76a4.483,4.483,0,1,1,8.92,0v7.433a1.784,1.784,0,1,0,3.568,0V73.168a4.608,4.608,0,0,1,4.451-4.83h.14a4.685,4.685,0,0,1,4.489,4.868c.021,8.807.017,11.746.006,19.741Zm0,0" transform="translate(-44.16 -25.759)" fill="#f8f8f8" stroke="#fff" stroke-width="1"/>
    <path id="Caminho_13" data-name="Caminho 13" d="M16.066,47.338a1.783,1.783,0,0,0-2.523,0l-3.092,3.092V13.319l3.092,3.091a1.784,1.784,0,1,0,2.523-2.524L10.375,8.2a1.782,1.782,0,0,0-3.1-.591l-.006.005L.988,13.887A1.784,1.784,0,1,0,3.51,16.41l3.373-3.373V50.712L3.51,47.338A1.784,1.784,0,0,0,.988,49.861l6.277,6.278a1.784,1.784,0,0,0,2.524,0l6.277-6.278a1.783,1.783,0,0,0,0-2.523Zm0,0" transform="translate(-0.465 -5.383)" fill="#f8f8f8" stroke="#fff" stroke-width="1"/>
    <path id="Caminho_14" data-name="Caminho 14" d="M120.134,14.953a11.385,11.385,0,0,1,22.769,0,1.784,1.784,0,0,0,3.568,0,14.953,14.953,0,0,0-29.906,0,1.784,1.784,0,1,0,3.568,0Zm0,0" transform="translate(-90.675)" fill="#f8f8f8" stroke="#fff" stroke-width="1"/>
  </g>
</svg>
