<svg id="Grupo_7" data-name="Grupo 7" xmlns="http://www.w3.org/2000/svg" width="186" height="62.151" viewBox="0 0 186 62.151">
  <path id="Caminho_30" data-name="Caminho 30" d="M349.809,496.756l20.892,21.2-5.691,5.691L334.5,492.688,365.236,461.5l5.691,5.691-20.675,20.978h14.532v8.588Z" transform="translate(-334.5 -461.5)" fill="#b3b3b3"/>
  <g id="Grupo_6" data-name="Grupo 6" transform="translate(37.968)">
    <path id="Caminho_31" data-name="Caminho 31" d="M467.028,488.394l-20.892-21.2,5.691-5.691,30.51,30.962L451.6,523.651l-5.691-5.691,20.675-20.978H452.053v-8.588Z" transform="translate(-433.521 -461.5)" fill="#f2f2f2"/>
    <circle id="Elipse_3" data-name="Elipse 3" cx="5.424" cy="5.424" r="5.424" transform="translate(0 25.651)" fill="#f2f2f2"/>
    <path id="Caminho_32" data-name="Caminho 32" d="M546.724,505.281v-7.232S530,493.981,530,504.378c0,9.492,11.978,9.266,11.978,13.786s-8.588,2.712-11.3,0V525.4s18.08,5.424,18.08-7.232c0-11.3-12.2-8.136-12.2-14.012C536.554,500.083,545.594,504.6,546.724,505.281Z" transform="translate(-479.602 -481.099)" fill="#f2f2f2"/>
    <path id="Caminho_33" data-name="Caminho 33" d="M614.724,505.281v-7.232S598,493.981,598,504.378c0,9.492,11.978,9.266,11.978,13.786s-8.588,2.712-11.3,0V525.4s18.08,5.424,18.08-7.232c0-11.3-12.2-8.136-12.2-14.012C604.554,500.083,613.594,504.6,614.724,505.281Z" transform="translate(-516.865 -481.099)" fill="#f2f2f2"/>
    <rect id="Retângulo_6" data-name="Retângulo 6" width="7.232" height="28.928" transform="translate(72.095 16.046)" fill="#f2f2f2"/>
    <path id="Caminho_34" data-name="Caminho 34" d="M663.628,519.6v6.328H646V497h17.176v6.328h-9.944V508.3h9.04v5.876h-9.04V519.6Z" transform="translate(-543.169 -480.954)" fill="#f2f2f2"/>
    <path id="Caminho_35" data-name="Caminho 35" d="M715.31,510.7V524.6a16.62,16.62,0,0,1-5.876,1.935c-7.833,1.306-19.6-.393-19.436-14.021.678-20.566,23.5-13.108,23.5-13.108v7.232s-16.046-9.718-16.95,5.65c0,10.554,10.138,8.941,12.882,8.308v-4.014h-5.876V510.7Z" transform="translate(-567.279 -481.548)" fill="#f2f2f2"/>
  </g>
</svg>
